# xmcd
#
# Track frame offsets: 
#        150
#        9549
#        20845
#        31014
#        42275
#        53703
#        64340
#        76689
#        88721
#        98393
#        108502
#        117872
#        128861
#        143421
#        155864
#        166447
#        178094
#        190634
#        200554
#        212067
#        223027
#        233727
#        246671
#        257609
#        268101
#
# Disc length: 3773 seconds
#
# Revision: 2
# Processed by: cddbd v1.5.2PL0 Copyright (c) Steve Scherf et al.
# Submitted via: ExactAudioCopyFreeDBPlugin 1.0
#
DISCID=5e0ebb19
DTITLE=Various Artist - Mod:  The Early Years [Real Gone Music]
DYEAR=2015
DGENRE=Rhythm and Blues
TTITLE0=Roosevelt Fountain - Red Pepper
TTITLE1=The Mar-Keys - Stack o' Woe
TTITLE2=Sinner Strong - Don't Knock It
TTITLE3=Little Eva - Keep Your Hands Off My Baby
TTITLE4=The Cookies - Chains
TTITLE5=The Pastel Six - Bandido
TTITLE6=Bobby King - Thanks Mr. Postman
TTITLE7=Mel Tormé - Comin' Home Baby
TTITLE8=The Tabs - The Wallop
TTITLE9=Rosemary - Not Much (Do You Baby)
TTITLE10=Oscar Boyd - When Things Get a Little Better
TTITLE11=The Jokers - So Tight
TTITLE12=Hank Ballard - Broadway
TTITLE13=The Drivers - Dry Bone Twist
TTITLE14=The Sheppards - Walkin'
TTITLE15=The Wanderers - You Can't Run Away from Me
TTITLE16=King Coleman - Crazy Feelin'
TTITLE17=Barbara George - Send for Me (If You Need Some Lovin')
TTITLE18=Berna Dean - One Gal in Town and Five Men Hanging Around
TTITLE19=The Tams - Untie Me
TTITLE20=Toni Harper - Fallin'
TTITLE21=Chris Kenner - Something You Got
TTITLE22=Dee Dee Sharp - Ride
TTITLE23=Jerry McCain - Red Top
TTITLE24=Ernie K-Doe - Taint it the Truth
EXTD=
EXTT0=
EXTT1=
EXTT2=
EXTT3=
EXTT4=
EXTT5=
EXTT6=
EXTT7=
EXTT8=
EXTT9=
EXTT10=
EXTT11=
EXTT12=
EXTT13=
EXTT14=
EXTT15=
EXTT16=
EXTT17=
EXTT18=
EXTT19=
EXTT20=
EXTT21=
EXTT22=
EXTT23=
EXTT24=
PLAYORDER=
